<mxfile host="app.diagrams.net" modified="2024-01-07T20:39:47.203Z" agent="Mozilla/5.0 (Windows NT 10.0; Win64; x64) AppleWebKit/537.36 (KHTML, like Gecko) Chrome/120.0.0.0 Safari/537.36 Edg/120.0.0.0" etag="rUbOpJbgGQYK7CCldWjD" version="22.1.17" type="device">
  <diagram name="PÃ¡gina-1" id="oAkp8REEhYpMjFryhqJl">
    <mxGraphModel dx="1349" dy="630" grid="1" gridSize="10" guides="1" tooltips="1" connect="1" arrows="1" fold="1" page="1" pageScale="1" pageWidth="827" pageHeight="1169" math="0" shadow="0">
      <root>
        <mxCell id="0" />
        <mxCell id="1" parent="0" />
        <mxCell id="7E6fNlSnegTZEaFqMz3E-1" value="Usuario" style="shape=umlActor;verticalLabelPosition=bottom;verticalAlign=top;html=1;outlineConnect=0;sketch=1;hachureGap=4;jiggle=2;curveFitting=1;fontFamily=Architects Daughter;fontSource=https%3A%2F%2Ffonts.googleapis.com%2Fcss%3Ffamily%3DArchitects%2BDaughter;fontSize=20;" vertex="1" parent="1">
          <mxGeometry x="105" y="150" width="30" height="60" as="geometry" />
        </mxCell>
        <mxCell id="7E6fNlSnegTZEaFqMz3E-2" value="Usuario" style="shape=umlActor;verticalLabelPosition=bottom;verticalAlign=top;html=1;sketch=1;hachureGap=4;jiggle=2;curveFitting=1;fontFamily=Architects Daughter;fontSource=https%3A%2F%2Ffonts.googleapis.com%2Fcss%3Ffamily%3DArchitects%2BDaughter;fontSize=20;" vertex="1" parent="1">
          <mxGeometry x="90" y="460" width="30" height="60" as="geometry" />
        </mxCell>
        <mxCell id="7E6fNlSnegTZEaFqMz3E-9" value="Cadastra Veiculos" style="ellipse;whiteSpace=wrap;html=1;sketch=1;hachureGap=4;jiggle=2;curveFitting=1;fontFamily=Architects Daughter;fontSource=https%3A%2F%2Ffonts.googleapis.com%2Fcss%3Ffamily%3DArchitects%2BDaughter;fontSize=20;" vertex="1" parent="1">
          <mxGeometry x="190" y="30" width="140" height="70" as="geometry" />
        </mxCell>
        <mxCell id="7E6fNlSnegTZEaFqMz3E-10" value="Cadastra&lt;br&gt;Motoristas" style="ellipse;whiteSpace=wrap;html=1;sketch=1;hachureGap=4;jiggle=2;curveFitting=1;fontFamily=Architects Daughter;fontSource=https%3A%2F%2Ffonts.googleapis.com%2Fcss%3Ffamily%3DArchitects%2BDaughter;fontSize=20;" vertex="1" parent="1">
          <mxGeometry x="190" y="140" width="140" height="70" as="geometry" />
        </mxCell>
        <mxCell id="7E6fNlSnegTZEaFqMz3E-11" value="Cadastra&lt;br&gt;Cobradores" style="ellipse;whiteSpace=wrap;html=1;sketch=1;hachureGap=4;jiggle=2;curveFitting=1;fontFamily=Architects Daughter;fontSource=https%3A%2F%2Ffonts.googleapis.com%2Fcss%3Ffamily%3DArchitects%2BDaughter;fontSize=20;" vertex="1" parent="1">
          <mxGeometry x="180" y="230" width="140" height="70" as="geometry" />
        </mxCell>
        <mxCell id="7E6fNlSnegTZEaFqMz3E-12" value="Cadastra&lt;br&gt;Passageiros" style="ellipse;whiteSpace=wrap;html=1;sketch=1;hachureGap=4;jiggle=2;curveFitting=1;fontFamily=Architects Daughter;fontSource=https%3A%2F%2Ffonts.googleapis.com%2Fcss%3Ffamily%3DArchitects%2BDaughter;fontSize=20;" vertex="1" parent="1">
          <mxGeometry x="50" y="30" width="120" height="80" as="geometry" />
        </mxCell>
        <mxCell id="7E6fNlSnegTZEaFqMz3E-14" value="" style="endArrow=classic;html=1;rounded=0;sketch=1;hachureGap=4;jiggle=2;curveFitting=1;fontFamily=Architects Daughter;fontSource=https%3A%2F%2Ffonts.googleapis.com%2Fcss%3Ffamily%3DArchitects%2BDaughter;fontSize=16;" edge="1" parent="1" source="7E6fNlSnegTZEaFqMz3E-1" target="7E6fNlSnegTZEaFqMz3E-10">
          <mxGeometry relative="1" as="geometry">
            <mxPoint x="400" y="320" as="sourcePoint" />
            <mxPoint x="490" y="320" as="targetPoint" />
          </mxGeometry>
        </mxCell>
        <mxCell id="7E6fNlSnegTZEaFqMz3E-16" value="" style="endArrow=classic;html=1;rounded=0;sketch=1;hachureGap=4;jiggle=2;curveFitting=1;fontFamily=Architects Daughter;fontSource=https%3A%2F%2Ffonts.googleapis.com%2Fcss%3Ffamily%3DArchitects%2BDaughter;fontSize=16;" edge="1" parent="1" source="7E6fNlSnegTZEaFqMz3E-1" target="7E6fNlSnegTZEaFqMz3E-11">
          <mxGeometry width="50" height="50" relative="1" as="geometry">
            <mxPoint x="420" y="350" as="sourcePoint" />
            <mxPoint x="470" y="300" as="targetPoint" />
          </mxGeometry>
        </mxCell>
        <mxCell id="7E6fNlSnegTZEaFqMz3E-17" value="" style="endArrow=classic;html=1;rounded=0;sketch=1;hachureGap=4;jiggle=2;curveFitting=1;fontFamily=Architects Daughter;fontSource=https%3A%2F%2Ffonts.googleapis.com%2Fcss%3Ffamily%3DArchitects%2BDaughter;fontSize=16;entryX=0.5;entryY=1;entryDx=0;entryDy=0;" edge="1" parent="1" source="7E6fNlSnegTZEaFqMz3E-1" target="7E6fNlSnegTZEaFqMz3E-12">
          <mxGeometry width="50" height="50" relative="1" as="geometry">
            <mxPoint x="130" y="210" as="sourcePoint" />
            <mxPoint x="130" y="310" as="targetPoint" />
          </mxGeometry>
        </mxCell>
        <mxCell id="7E6fNlSnegTZEaFqMz3E-18" value="" style="endArrow=classic;html=1;rounded=0;sketch=1;hachureGap=4;jiggle=2;curveFitting=1;fontFamily=Architects Daughter;fontSource=https%3A%2F%2Ffonts.googleapis.com%2Fcss%3Ffamily%3DArchitects%2BDaughter;fontSize=16;exitX=0.5;exitY=0;exitDx=0;exitDy=0;exitPerimeter=0;" edge="1" parent="1" source="7E6fNlSnegTZEaFqMz3E-1" target="7E6fNlSnegTZEaFqMz3E-9">
          <mxGeometry relative="1" as="geometry">
            <mxPoint x="130" y="200" as="sourcePoint" />
            <mxPoint x="210" y="200" as="targetPoint" />
          </mxGeometry>
        </mxCell>
        <mxCell id="7E6fNlSnegTZEaFqMz3E-20" value="Cadastra&lt;br&gt;Ponto de Parada" style="ellipse;whiteSpace=wrap;html=1;sketch=1;hachureGap=4;jiggle=2;curveFitting=1;fontFamily=Architects Daughter;fontSource=https%3A%2F%2Ffonts.googleapis.com%2Fcss%3Ffamily%3DArchitects%2BDaughter;fontSize=20;" vertex="1" parent="1">
          <mxGeometry x="190" y="370" width="120" height="80" as="geometry" />
        </mxCell>
        <mxCell id="7E6fNlSnegTZEaFqMz3E-21" value="Cadastra Trechos" style="ellipse;whiteSpace=wrap;html=1;sketch=1;hachureGap=4;jiggle=2;curveFitting=1;fontFamily=Architects Daughter;fontSource=https%3A%2F%2Ffonts.googleapis.com%2Fcss%3Ffamily%3DArchitects%2BDaughter;fontSize=20;" vertex="1" parent="1">
          <mxGeometry x="190" y="470" width="120" height="80" as="geometry" />
        </mxCell>
        <mxCell id="7E6fNlSnegTZEaFqMz3E-22" value="Cadastra Trajetos" style="ellipse;whiteSpace=wrap;html=1;sketch=1;hachureGap=4;jiggle=2;curveFitting=1;fontFamily=Architects Daughter;fontSource=https%3A%2F%2Ffonts.googleapis.com%2Fcss%3Ffamily%3DArchitects%2BDaughter;fontSize=20;" vertex="1" parent="1">
          <mxGeometry x="50" y="330" width="120" height="80" as="geometry" />
        </mxCell>
        <mxCell id="7E6fNlSnegTZEaFqMz3E-23" value="" style="endArrow=classic;html=1;rounded=0;sketch=1;hachureGap=4;jiggle=2;curveFitting=1;fontFamily=Architects Daughter;fontSource=https%3A%2F%2Ffonts.googleapis.com%2Fcss%3Ffamily%3DArchitects%2BDaughter;fontSize=16;entryX=0.001;entryY=0.438;entryDx=0;entryDy=0;entryPerimeter=0;exitX=1;exitY=0.3333333333333333;exitDx=0;exitDy=0;exitPerimeter=0;" edge="1" parent="1" source="7E6fNlSnegTZEaFqMz3E-2" target="7E6fNlSnegTZEaFqMz3E-20">
          <mxGeometry width="50" height="50" relative="1" as="geometry">
            <mxPoint x="145" y="210" as="sourcePoint" />
            <mxPoint x="217" y="257" as="targetPoint" />
          </mxGeometry>
        </mxCell>
        <mxCell id="7E6fNlSnegTZEaFqMz3E-24" value="" style="endArrow=classic;html=1;rounded=0;sketch=1;hachureGap=4;jiggle=2;curveFitting=1;fontFamily=Architects Daughter;fontSource=https%3A%2F%2Ffonts.googleapis.com%2Fcss%3Ffamily%3DArchitects%2BDaughter;fontSize=16;entryX=0.057;entryY=0.26;entryDx=0;entryDy=0;entryPerimeter=0;" edge="1" parent="1" source="7E6fNlSnegTZEaFqMz3E-2" target="7E6fNlSnegTZEaFqMz3E-21">
          <mxGeometry width="50" height="50" relative="1" as="geometry">
            <mxPoint x="160" y="450" as="sourcePoint" />
            <mxPoint x="210" y="415" as="targetPoint" />
          </mxGeometry>
        </mxCell>
        <mxCell id="7E6fNlSnegTZEaFqMz3E-25" value="" style="endArrow=classic;html=1;rounded=0;sketch=1;hachureGap=4;jiggle=2;curveFitting=1;fontFamily=Architects Daughter;fontSource=https%3A%2F%2Ffonts.googleapis.com%2Fcss%3Ffamily%3DArchitects%2BDaughter;fontSize=16;" edge="1" parent="1" source="7E6fNlSnegTZEaFqMz3E-2" target="7E6fNlSnegTZEaFqMz3E-22">
          <mxGeometry width="50" height="50" relative="1" as="geometry">
            <mxPoint x="130" y="457" as="sourcePoint" />
            <mxPoint x="240" y="511" as="targetPoint" />
          </mxGeometry>
        </mxCell>
        <mxCell id="7E6fNlSnegTZEaFqMz3E-26" value="Usuario" style="shape=umlActor;verticalLabelPosition=bottom;verticalAlign=top;html=1;outlineConnect=0;sketch=1;hachureGap=4;jiggle=2;curveFitting=1;fontFamily=Architects Daughter;fontSource=https%3A%2F%2Ffonts.googleapis.com%2Fcss%3Ffamily%3DArchitects%2BDaughter;fontSize=20;" vertex="1" parent="1">
          <mxGeometry x="495" y="145" width="30" height="60" as="geometry" />
        </mxCell>
        <mxCell id="7E6fNlSnegTZEaFqMz3E-27" value="Cadastra Jornada Motorista" style="ellipse;whiteSpace=wrap;html=1;sketch=1;hachureGap=4;jiggle=2;curveFitting=1;fontFamily=Architects Daughter;fontSource=https%3A%2F%2Ffonts.googleapis.com%2Fcss%3Ffamily%3DArchitects%2BDaughter;fontSize=20;" vertex="1" parent="1">
          <mxGeometry x="585" y="55" width="120" height="80" as="geometry" />
        </mxCell>
        <mxCell id="7E6fNlSnegTZEaFqMz3E-28" value="Cadastra Jornada Cobrador" style="ellipse;whiteSpace=wrap;html=1;sketch=1;hachureGap=4;jiggle=2;curveFitting=1;fontFamily=Architects Daughter;fontSource=https%3A%2F%2Ffonts.googleapis.com%2Fcss%3Ffamily%3DArchitects%2BDaughter;fontSize=20;" vertex="1" parent="1">
          <mxGeometry x="585" y="155" width="120" height="80" as="geometry" />
        </mxCell>
        <mxCell id="7E6fNlSnegTZEaFqMz3E-29" value="Cadastra Jornada VeÃ­culo" style="ellipse;whiteSpace=wrap;html=1;sketch=1;hachureGap=4;jiggle=2;curveFitting=1;fontFamily=Architects Daughter;fontSource=https%3A%2F%2Ffonts.googleapis.com%2Fcss%3Ffamily%3DArchitects%2BDaughter;fontSize=20;" vertex="1" parent="1">
          <mxGeometry x="450" y="30" width="120" height="80" as="geometry" />
        </mxCell>
        <mxCell id="7E6fNlSnegTZEaFqMz3E-30" value="" style="endArrow=classic;html=1;rounded=0;sketch=1;hachureGap=4;jiggle=2;curveFitting=1;fontFamily=Architects Daughter;fontSource=https%3A%2F%2Ffonts.googleapis.com%2Fcss%3Ffamily%3DArchitects%2BDaughter;fontSize=16;entryX=0.5;entryY=1;entryDx=0;entryDy=0;" edge="1" parent="1" source="7E6fNlSnegTZEaFqMz3E-26" target="7E6fNlSnegTZEaFqMz3E-29">
          <mxGeometry width="50" height="50" relative="1" as="geometry">
            <mxPoint x="535" y="-75" as="sourcePoint" />
            <mxPoint x="612" y="-74" as="targetPoint" />
          </mxGeometry>
        </mxCell>
        <mxCell id="7E6fNlSnegTZEaFqMz3E-31" value="" style="endArrow=classic;html=1;rounded=0;sketch=1;hachureGap=4;jiggle=2;curveFitting=1;fontFamily=Architects Daughter;fontSource=https%3A%2F%2Ffonts.googleapis.com%2Fcss%3Ffamily%3DArchitects%2BDaughter;fontSize=16;" edge="1" parent="1" source="7E6fNlSnegTZEaFqMz3E-26" target="7E6fNlSnegTZEaFqMz3E-27">
          <mxGeometry width="50" height="50" relative="1" as="geometry">
            <mxPoint x="520" y="155" as="sourcePoint" />
            <mxPoint x="520" y="120" as="targetPoint" />
          </mxGeometry>
        </mxCell>
        <mxCell id="7E6fNlSnegTZEaFqMz3E-32" value="" style="endArrow=classic;html=1;rounded=0;sketch=1;hachureGap=4;jiggle=2;curveFitting=1;fontFamily=Architects Daughter;fontSource=https%3A%2F%2Ffonts.googleapis.com%2Fcss%3Ffamily%3DArchitects%2BDaughter;fontSize=16;entryX=0.001;entryY=0.406;entryDx=0;entryDy=0;entryPerimeter=0;" edge="1" parent="1" source="7E6fNlSnegTZEaFqMz3E-26" target="7E6fNlSnegTZEaFqMz3E-28">
          <mxGeometry width="50" height="50" relative="1" as="geometry">
            <mxPoint x="535" y="176" as="sourcePoint" />
            <mxPoint x="610" y="132" as="targetPoint" />
          </mxGeometry>
        </mxCell>
        <mxCell id="7E6fNlSnegTZEaFqMz3E-35" value="Usuario" style="shape=umlActor;verticalLabelPosition=bottom;verticalAlign=top;html=1;outlineConnect=0;sketch=1;hachureGap=4;jiggle=2;curveFitting=1;fontFamily=Architects Daughter;fontSource=https%3A%2F%2Ffonts.googleapis.com%2Fcss%3Ffamily%3DArchitects%2BDaughter;fontSize=20;" vertex="1" parent="1">
          <mxGeometry x="510" y="420" width="30" height="60" as="geometry" />
        </mxCell>
        <mxCell id="7E6fNlSnegTZEaFqMz3E-36" value="Registra Inicio Trajeto" style="ellipse;whiteSpace=wrap;html=1;sketch=1;hachureGap=4;jiggle=2;curveFitting=1;fontFamily=Architects Daughter;fontSource=https%3A%2F%2Ffonts.googleapis.com%2Fcss%3Ffamily%3DArchitects%2BDaughter;fontSize=20;" vertex="1" parent="1">
          <mxGeometry x="465" y="300" width="120" height="80" as="geometry" />
        </mxCell>
        <mxCell id="7E6fNlSnegTZEaFqMz3E-37" value="Registra Checkpoint" style="ellipse;whiteSpace=wrap;html=1;sketch=1;hachureGap=4;jiggle=2;curveFitting=1;fontFamily=Architects Daughter;fontSource=https%3A%2F%2Ffonts.googleapis.com%2Fcss%3Ffamily%3DArchitects%2BDaughter;fontSize=20;" vertex="1" parent="1">
          <mxGeometry x="585" y="350" width="120" height="80" as="geometry" />
        </mxCell>
        <mxCell id="7E6fNlSnegTZEaFqMz3E-38" value="Registra Fim de Trajeto" style="ellipse;whiteSpace=wrap;html=1;sketch=1;hachureGap=4;jiggle=2;curveFitting=1;fontFamily=Architects Daughter;fontSource=https%3A%2F%2Ffonts.googleapis.com%2Fcss%3Ffamily%3DArchitects%2BDaughter;fontSize=20;" vertex="1" parent="1">
          <mxGeometry x="580" y="460" width="120" height="80" as="geometry" />
        </mxCell>
        <mxCell id="7E6fNlSnegTZEaFqMz3E-39" value="" style="endArrow=classic;html=1;rounded=0;sketch=1;hachureGap=4;jiggle=2;curveFitting=1;fontFamily=Architects Daughter;fontSource=https%3A%2F%2Ffonts.googleapis.com%2Fcss%3Ffamily%3DArchitects%2BDaughter;fontSize=16;entryX=0.5;entryY=1;entryDx=0;entryDy=0;exitX=0.5;exitY=0;exitDx=0;exitDy=0;exitPerimeter=0;" edge="1" parent="1" source="7E6fNlSnegTZEaFqMz3E-35" target="7E6fNlSnegTZEaFqMz3E-36">
          <mxGeometry width="50" height="50" relative="1" as="geometry">
            <mxPoint x="535" y="187" as="sourcePoint" />
            <mxPoint x="595" y="197" as="targetPoint" />
          </mxGeometry>
        </mxCell>
        <mxCell id="7E6fNlSnegTZEaFqMz3E-40" value="" style="endArrow=classic;html=1;rounded=0;sketch=1;hachureGap=4;jiggle=2;curveFitting=1;fontFamily=Architects Daughter;fontSource=https%3A%2F%2Ffonts.googleapis.com%2Fcss%3Ffamily%3DArchitects%2BDaughter;fontSize=16;entryX=-0.006;entryY=0.583;entryDx=0;entryDy=0;exitX=1;exitY=0.3333333333333333;exitDx=0;exitDy=0;exitPerimeter=0;entryPerimeter=0;" edge="1" parent="1" source="7E6fNlSnegTZEaFqMz3E-35" target="7E6fNlSnegTZEaFqMz3E-37">
          <mxGeometry width="50" height="50" relative="1" as="geometry">
            <mxPoint x="520" y="430" as="sourcePoint" />
            <mxPoint x="535" y="390" as="targetPoint" />
          </mxGeometry>
        </mxCell>
        <mxCell id="7E6fNlSnegTZEaFqMz3E-41" value="" style="endArrow=classic;html=1;rounded=0;sketch=1;hachureGap=4;jiggle=2;curveFitting=1;fontFamily=Architects Daughter;fontSource=https%3A%2F%2Ffonts.googleapis.com%2Fcss%3Ffamily%3DArchitects%2BDaughter;fontSize=16;" edge="1" parent="1" source="7E6fNlSnegTZEaFqMz3E-35" target="7E6fNlSnegTZEaFqMz3E-38">
          <mxGeometry width="50" height="50" relative="1" as="geometry">
            <mxPoint x="535" y="450" as="sourcePoint" />
            <mxPoint x="594" y="407" as="targetPoint" />
          </mxGeometry>
        </mxCell>
        <mxCell id="7E6fNlSnegTZEaFqMz3E-42" value="Diogo Dorea Santos" style="text;html=1;strokeColor=none;fillColor=none;align=center;verticalAlign=middle;whiteSpace=wrap;rounded=0;fontSize=20;fontFamily=Architects Daughter;" vertex="1" parent="1">
          <mxGeometry x="30" y="600" width="210" height="30" as="geometry" />
        </mxCell>
      </root>
    </mxGraphModel>
  </diagram>
</mxfile>
